PathFileType	3	(X/Y/Z)	E:\ViconData\BIOM9541 2025\Week 7\Wed1100\Stat Cal.trc
DataRate	CameraRate	NumFrames	NumMarkers	Units	OrigDataRate	OrigDataStartFrame	OrigNumFrames
200.0	200.0	15	19	mm	200.0	64	106	
Frame#	Time	C7			CLAV			RBAK			LASI			RASI			LPSI			RPSI			LTHI			LKNE			LTIB			LANK			LHEE			LTOE			RTHI			RKNE			RTIB			RANK			RHEE			RTOE			
		X1	Y1	Z1	X2	Y2	Z2	X3	Y3	Z3	X4	Y4	Z4	X5	Y5	Z5	X6	Y6	Z6	X7	Y7	Z7	X8	Y8	Z8	X9	Y9	Z9	X10	Y10	Z10	X11	Y11	Z11	X12	Y12	Z12	X13	Y13	Z13	X14	Y14	Z14	X15	Y15	Z15	X16	Y16	Z16	X17	Y17	Z17	X18	Y18	Z18	X19	Y19	Z19	
64	0.315	230.64116	1319.4502	-1005.6373	236.00531	1262.8159	-844.823	75.081299	1241.0902	-1000.7651	348.94263	884.14917	-809.54553	96.628723	894.96832	-803.66504	262.84729	952.45453	-987.39563	189.30565	952.32123	-984.37012	393.71759	550.99036	-878.42877	379.54395	417.0058	-908.79602	396.00659	204.37315	-937.74408	377.08051	62.67181	-960.22363	324.44269	48.841095	-991.00354	377.28284	37.326172	-810.08508	37.121063	726.66681	-865.18768	50.190506	417.93777	-917.4444	30.52726	319.90259	-931.22528	50.763203	72.120911	-952.06329	101.7731	49.946056	-994.71014	61.189205	39.348156	-809.58453
65	0.32	230.6416	1319.4413	-1005.5816	236.01982	1262.814	-844.76392	75.113762	1241.0326	-1000.7083	348.94604	884.15631	-809.508	96.615845	894.99902	-803.58746	262.8558	952.42676	-987.349	189.30519	952.29034	-984.33112	394.63788	550.94611	-879.76971	379.53537	416.9899	-908.85101	395.98254	204.39636	-937.61316	377.11365	62.62981	-960.25812	324.3595	48.321796	-990.6488	377.28748	37.304134	-810.12067	37.135506	726.65594	-865.17535	50.181881	417.92737	-917.42377	30.534494	319.88632	-931.2229	51.246357	72.082001	-952.42346	101.82558	49.880287	-994.70325	61.188858	39.334904	-809.62775
66	0.325	230.65157	1319.4198	-1005.5375	236.00015	1262.8269	-844.7196	75.110634	1241.0283	-1000.6367	348.9411	884.14185	-809.45984	96.615753	895.00848	-803.52869	262.84927	952.41418	-987.30597	189.29778	952.27704	-984.27991	394.64056	550.90314	-879.75739	379.50638	416.97415	-908.90302	395.95782	204.39444	-937.60553	377.10452	62.592247	-960.242	324.35889	48.268753	-990.61932	377.28265	37.284275	-810.06488	37.113903	726.68707	-865.1864	50.488762	417.57498	-917.28625	30.2391	320.14288	-931.3183	51.260654	72.073669	-952.41138	101.81642	49.895615	-994.72308	61.212883	39.310497	-809.62598
67	0.33	230.63033	1319.4238	-1005.5022	235.96042	1262.8522	-844.67224	75.103394	1241.0449	-1000.5898	348.95941	884.10895	-809.41833	96.622665	894.96863	-803.48761	262.82184	952.4165	-987.26605	189.269	952.32092	-984.23608	393.69882	550.89801	-878.41205	379.48035	416.99579	-908.76044	396.0072	204.28435	-937.83026	377.06796	62.608555	-960.2063	324.13535	48.46043	-990.86133	377.241	37.280396	-809.99084	37.144131	726.65662	-865.11676	50.485165	417.56232	-917.22473	30.536083	319.85629	-931.14551	50.912388	72.113098	-952.16553	101.81446	49.905582	-994.70233	61.21389	39.302189	-809.60461
68	0.335	230.60634	1319.4606	-1005.4509	235.85068	1262.7421	-845.0835	75.084526	1241.0664	-1000.533	348.94098	884.05969	-809.36902	96.631386	894.91046	-803.47235	262.79813	952.46655	-987.2243	189.23444	952.40991	-984.20734	393.66678	550.92468	-878.31134	379.45239	417.03381	-908.60089	395.99179	204.34451	-937.76123	377.13834	62.75317	-960.31812	324.12772	48.528259	-990.83136	377.2309	37.298382	-809.96948	37.15691	726.64307	-865.07159	50.492016	417.55344	-917.17401	30.53833	319.83871	-931.07904	50.88488	72.154922	-952.12317	101.79567	49.982761	-994.70087	61.181057	39.300869	-809.52454
69	0.34	230.58615	1319.4612	-1005.4	235.86801	1262.7087	-845.08044	75.101517	1241.0458	-1000.4728	348.93729	884.02435	-809.3548	96.649994	894.87793	-803.43762	262.7756	952.51434	-987.17334	189.22202	952.47015	-984.15527	393.64182	550.96991	-878.24359	379.41907	417.07391	-908.4422	395.54004	204.9985	-935.02252	377.19318	62.871403	-960.38153	324.1058	48.529022	-990.77899	377.21201	37.33004	-809.9281	37.164669	726.65265	-865.02509	50.493542	417.57074	-917.16547	30.524	319.84573	-931.04639	50.852863	72.202225	-952.09583	101.7919	50.01899	-994.69275	61.163589	39.296112	-809.48572
70	0.345	230.58676	1319.4852	-1005.3511	235.86374	1262.7198	-845.04938	75.089211	1241.0575	-1000.4083	348.931	884.01697	-809.32111	96.634689	894.90936	-803.40521	262.79443	952.50262	-987.13818	189.23941	952.47272	-984.11737	393.67563	550.94501	-878.27832	379.44833	417.07733	-908.54797	396.1189	204.27654	-938.08301	377.13275	62.780903	-960.2666	324.13245	48.58342	-990.83038	377.22235	37.326359	-809.91284	37.138828	726.68768	-865.01501	50.463398	417.60388	-917.12524	30.508211	319.88156	-931.01678	50.847118	72.191147	-952.07288	101.83842	50.035419	-994.68439	61.183693	39.320892	-809.54272
71	0.35	230.64497	1319.4126	-1005.1544	235.90265	1262.8486	-844.71973	75.068748	1241.0636	-1000.3648	348.93295	884.05725	-809.30511	96.63446	894.94543	-803.36597	262.78665	952.49347	-987.08344	189.26144	952.45319	-984.06372	393.66986	550.9472	-878.26556	379.47232	417.03665	-908.7431	395.62234	204.94383	-935.27344	377.10397	62.710598	-960.20532	324.15414	48.500847	-990.81165	377.27859	37.29147	-809.95435	37.105801	726.73389	-865.02454	50.438557	417.64182	-917.15369	30.217684	320.17514	-931.1051	50.905479	72.161331	-952.12152	101.86016	50.003819	-994.66803	61.183201	39.332531	-809.58026
72	0.355	230.64543	1319.4036	-1005.0988	235.85675	1262.7908	-844.9566	75.068283	1241.0365	-1000.3076	348.92566	884.0791	-809.24579	96.638031	894.9613	-803.32538	262.78113	952.47961	-987.04132	189.25926	952.42181	-984.00238	393.71722	550.88348	-878.40668	379.47635	416.98654	-908.91168	395.97223	204.40604	-937.53973	377.07532	62.644794	-960.17291	324.15164	48.459423	-990.80237	377.2659	37.229813	-809.95453	37.088512	726.73962	-865.03326	50.118008	417.97653	-917.20319	30.491941	319.92224	-930.99188	50.901493	72.129463	-952.09296	101.87594	49.959213	-994.65308	61.19738	39.322693	-809.60431
73	0.36	230.60414	1319.4182	-1005.043	235.84561	1262.7976	-844.89087	75.040459	1241.0665	-1000.2712	348.92969	884.05353	-809.22656	96.623932	894.94885	-803.27899	262.74689	952.50873	-987.00732	189.22481	952.46924	-983.9939	393.68375	550.90118	-878.34009	379.43881	417.01889	-908.76385	395.94949	204.41156	-937.49945	377.11343	62.71019	-960.2381	324.14148	48.504738	-990.82709	377.24973	37.249733	-809.94702	37.096577	726.72394	-864.92499	50.421032	417.64746	-917.03864	30.198523	320.15457	-931.00317	50.8708	72.145027	-952.0697	101.84046	50.007069	-994.67712	61.193768	39.327503	-809.58868
74	0.365	230.58185	1319.4301	-1004.9945	235.84566	1262.741	-844.86334	75.063194	1241.0688	-1000.2029	348.90887	884.00854	-809.18018	96.639717	894.91449	-803.24188	262.73221	952.55664	-986.97925	189.20776	952.52148	-983.97858	393.63455	550.89471	-878.23669	379.38135	417.07904	-908.51544	395.55536	205.01685	-935.05878	377.17667	62.870472	-960.36029	324.42853	48.933685	-990.97748	377.22845	37.327324	-809.98071	37.147015	726.69623	-864.81818	50.464901	417.63547	-917.00568	30.218981	320.1684	-930.95013	50.809696	72.209351	-951.99896	101.82288	50.109142	-994.70416	61.181934	39.312328	-809.48956
75	0.37	230.58542	1319.4131	-1004.9401	235.83614	1262.7299	-844.81342	75.090836	1241.0553	-1000.1127	348.91946	883.97809	-809.15118	96.608665	894.8822	-803.17926	262.72205	952.57941	-986.93958	189.19978	952.54315	-983.93402	393.60361	550.93237	-878.13214	379.32996	417.1239	-908.38989	395.52127	205.0397	-934.9353	377.21036	62.936901	-960.41388	324.09308	48.681961	-990.86194	377.22687	37.367619	-809.95306	37.144234	726.67706	-864.7373	50.498955	417.97723	-917.35486	30.501961	319.88065	-930.8324	50.771366	72.235199	-951.93994	101.81924	50.129341	-994.68616	61.197899	39.29681	-809.47736
76	0.375	230.58504	1319.3829	-1004.8678	235.84953	1262.73	-844.7652	75.095551	1241.02	-1000.046	348.90384	884.01111	-809.09552	96.597061	894.92145	-803.13226	262.72742	952.54449	-986.88959	189.18396	952.51624	-983.89349	393.61926	550.92804	-878.16754	379.32651	417.10715	-908.46283	395.53018	205.03241	-934.97253	377.13708	62.808746	-960.30688	324.11459	48.602516	-990.85785	377.2435	37.35355	-809.93689	37.108608	726.69177	-864.69678	50.537754	417.62354	-917.01733	30.232262	320.14563	-930.88672	50.781452	72.219803	-951.97211	101.85691	50.090858	-994.68097	61.209442	39.285202	-809.52844
77	0.38	230.56929	1319.3802	-1004.7965	235.83034	1262.7838	-844.69672	75.07373	1240.9932	-999.99872	348.91232	884.03723	-809.07764	96.604065	894.96741	-803.09625	262.71521	952.49652	-986.82764	189.1846	952.45831	-983.8255	393.63785	550.90594	-878.22034	379.35815	417.05896	-908.65546	395.5686	204.98698	-935.21881	377.07617	62.674328	-960.21729	324.13739	48.473572	-990.81226	377.24741	37.29488	-809.94421	37.105762	726.68634	-864.69586	50.548363	417.59137	-917.00427	30.498674	319.85712	-930.81219	50.799767	72.17614	-951.98242	101.87447	50.009132	-994.67499	61.223408	39.269249	-809.57318
78	0.385	230.53986	1319.3843	-1004.7305	235.84067	1262.7725	-844.6908	75.037743	1240.9963	-999.94611	348.91675	884.05365	-809.07074	96.603851	894.97748	-803.07013	262.69168	952.49792	-986.78595	189.16223	952.43005	-983.79248	393.66299	550.90002	-878.23273	379.37131	417.04562	-908.78772	395.58737	204.97934	-935.29785	376.99741	62.626926	-960.13977	324.12561	48.506081	-990.84949	377.23605	37.281429	-809.96167	37.043255	726.72339	-864.69958	50.547405	417.59891	-917.00305	30.467655	319.87445	-930.7793	50.800167	72.177475	-952.01648	101.86463	50.010704	-994.664	61.204151	39.284397	-809.57953
